STARTFONT 2.1
FONT -Adobe-ITC Avant Garde Gothic-Demi-R-Normal--20-140-100-100-P-105-ISO8859-1
SIZE 14 100 100
FONTBOUNDINGBOX 23 23 -1 -4

STARTPROPERTIES 30
FOUNDRY "Adobe"
FAMILY_NAME "ITC Avant Garde Gothic"
WEIGHT_NAME "Demi"
SLANT "R"
SETWIDTH_NAME "Normal"
ADD_STYLE_NAME ""
PIXEL_SIZE 20
POINT_SIZE 140
RESOLUTION_X 100
RESOLUTION_Y 100
SPACING "P"
AVERAGE_WIDTH 105
CHARSET_REGISTRY "ISO8859"
CHARSET_ENCODING "1"
CAP_HEIGHT 14
X_HEIGHT 11
FACE_NAME "ITC Avant Garde Gothic Demi"
COPYRIGHT "Copyright (c) 1984, 1987 Adobe Systems Incorporated. All Rights Reserved. Copyright (c) 1988, 1991 Digital Equipment Corporation. All Rights Reserved."
NOTICE "ITC Avant Garde Gothic is a registered trademark of International Typeface Corporation."
_DEC_DEVICE_FONTNAMES "PS=AvantGarde-Demi"
_DEC_PRODUCTINFO "DECwindows Fonts V2.2, 07-Nov-1991"
RELATIVE_SETWIDTH 50
RELATIVE_WEIGHT 60
CHARSET_COLLECTIONS "ASCII ISO8859-1 ADOBE-STANDARD"
FULL_NAME "ITC Avant Garde Gothic Demi"
WEIGHT 10
QUAD_WIDTH 13
DEFAULT_CHAR 32
FONT_DESCENT 4
FONT_ASCENT 17
ENDPROPERTIES

CHARS 191

STARTCHAR space
ENCODING 32
SWIDTH 280 0
DWIDTH 5 0
BBX 1 1 0 0
BITMAP
00
ENDCHAR

STARTCHAR exclam
ENCODING 33
SWIDTH 280 0
DWIDTH 5 0
BBX 2 14 1 0
BITMAP
C0
C0
C0
C0
C0
C0
C0
C0
C0
C0
00
C0
C0
C0
ENDCHAR

STARTCHAR quotedbl
ENCODING 34
SWIDTH 360 0
DWIDTH 7 0
BBX 4 4 1 10
BITMAP
90
90
90
90
ENDCHAR

STARTCHAR numbersign
ENCODING 35
SWIDTH 600 0
DWIDTH 13 0
BBX 10 13 1 0
BITMAP
1980
1980
1980
7FC0
7FC0
3300
3300
3300
FF80
FF80
6600
6600
6600
ENDCHAR

STARTCHAR dollar
ENCODING 36
SWIDTH 560 0
DWIDTH 10 0
BBX 7 16 1 -1
BITMAP
18
18
3C
7E
E6
C0
E0
78
3C
0E
06
C6
FE
7C
18
18
ENDCHAR

STARTCHAR percent
ENCODING 37
SWIDTH 860 0
DWIDTH 17 0
BBX 14 14 1 0
BITMAP
78C0
FCC0
CD80
CD80
FD00
7B00
0300
0600
0678
04FC
0CCC
0CCC
18FC
1878
ENDCHAR

STARTCHAR ampersand
ENCODING 38
SWIDTH 680 0
DWIDTH 13 0
BBX 12 14 0 0
BITMAP
1C00
3E00
7700
6300
7700
3E00
3C60
7E60
E760
C3C0
C1C0
E3E0
7F70
1C30
ENDCHAR

STARTCHAR quoteright
ENCODING 39
SWIDTH 280 0
DWIDTH 5 0
BBX 2 5 1 9
BITMAP
C0
C0
C0
40
80
ENDCHAR

STARTCHAR parenleft
ENCODING 40
SWIDTH 380 0
DWIDTH 7 0
BBX 5 16 1 -2
BITMAP
18
38
70
60
E0
C0
C0
C0
C0
C0
C0
E0
60
70
38
18
ENDCHAR

STARTCHAR parenright
ENCODING 41
SWIDTH 380 0
DWIDTH 7 0
BBX 5 16 1 -2
BITMAP
C0
E0
70
30
38
18
18
18
18
18
18
38
30
70
E0
C0
ENDCHAR

STARTCHAR asterisk
ENCODING 42
SWIDTH 440 0
DWIDTH 7 0
BBX 6 5 0 9
BITMAP
48
30
FC
30
48
ENDCHAR

STARTCHAR plus
ENCODING 43
SWIDTH 600 0
DWIDTH 13 0
BBX 10 10 1 1
BITMAP
0C00
0C00
0C00
0C00
FFC0
FFC0
0C00
0C00
0C00
0C00
ENDCHAR

STARTCHAR comma
ENCODING 44
SWIDTH 280 0
DWIDTH 5 0
BBX 2 5 1 -2
BITMAP
C0
C0
C0
40
80
ENDCHAR

STARTCHAR minus
ENCODING 45
SWIDTH 600 0
DWIDTH 12 0
BBX 9 2 1 5
BITMAP
FF80
FF80
ENDCHAR

STARTCHAR period
ENCODING 46
SWIDTH 280 0
DWIDTH 5 0
BBX 2 3 1 0
BITMAP
C0
C0
C0
ENDCHAR

STARTCHAR slash
ENCODING 47
SWIDTH 460 0
DWIDTH 9 0
BBX 9 16 0 -2
BITMAP
0180
0180
0300
0300
0600
0600
0C00
0C00
1800
1800
3000
3000
6000
6000
C000
C000
ENDCHAR

STARTCHAR zero
ENCODING 48
SWIDTH 560 0
DWIDTH 10 0
BBX 9 14 0 0
BITMAP
3E00
7F00
E380
C180
C180
C180
C180
C180
C180
C180
C180
E380
7F00
3E00
ENDCHAR

STARTCHAR one
ENCODING 49
SWIDTH 560 0
DWIDTH 10 0
BBX 4 14 2 0
BITMAP
F0
F0
30
30
30
30
30
30
30
30
30
30
30
30
ENDCHAR

STARTCHAR two
ENCODING 50
SWIDTH 560 0
DWIDTH 10 0
BBX 9 14 0 0
BITMAP
3E00
7F00
E380
C180
C180
0380
0700
0E00
1C00
3800
7000
E000
FF80
FF80
ENDCHAR

STARTCHAR three
ENCODING 51
SWIDTH 560 0
DWIDTH 10 0
BBX 9 14 0 0
BITMAP
1E00
3F00
7380
6180
0380
0F00
0F00
0380
0180
0180
C180
E380
7F00
3E00
ENDCHAR

STARTCHAR four
ENCODING 52
SWIDTH 560 0
DWIDTH 10 0
BBX 9 14 0 0
BITMAP
0300
0700
0700
0F00
0F00
1B00
3B00
3300
7300
6300
FF80
FF80
0300
0300
ENDCHAR

STARTCHAR five
ENCODING 53
SWIDTH 560 0
DWIDTH 10 0
BBX 9 14 0 0
BITMAP
3F00
3F00
3000
3000
7E00
7F00
6380
0180
0180
0180
C180
E380
7F00
3E00
ENDCHAR

STARTCHAR six
ENCODING 54
SWIDTH 560 0
DWIDTH 10 0
BBX 9 14 0 0
BITMAP
0700
0E00
1C00
3800
7000
7E00
FF00
E380
C180
C180
C180
E380
7F00
3E00
ENDCHAR

STARTCHAR seven
ENCODING 55
SWIDTH 560 0
DWIDTH 10 0
BBX 9 14 0 0
BITMAP
FF80
FF80
0300
0300
0700
0600
0E00
0C00
0C00
1800
1800
3800
3000
3000
ENDCHAR

STARTCHAR eight
ENCODING 56
SWIDTH 560 0
DWIDTH 10 0
BBX 9 14 0 0
BITMAP
3E00
7F00
6300
6300
6300
3E00
7F00
E380
C180
C180
C180
E380
7F00
3E00
ENDCHAR

STARTCHAR nine
ENCODING 57
SWIDTH 560 0
DWIDTH 10 0
BBX 9 14 0 0
BITMAP
3E00
7F00
E380
C180
C180
C180
E380
7F80
3F00
0700
0E00
1C00
3800
7000
ENDCHAR

STARTCHAR colon
ENCODING 58
SWIDTH 280 0
DWIDTH 5 0
BBX 2 10 1 0
BITMAP
C0
C0
C0
00
00
00
00
C0
C0
C0
ENDCHAR

STARTCHAR semicolon
ENCODING 59
SWIDTH 280 0
DWIDTH 5 0
BBX 2 12 1 -2
BITMAP
C0
C0
C0
00
00
00
00
C0
C0
C0
40
80
ENDCHAR

STARTCHAR less
ENCODING 60
SWIDTH 600 0
DWIDTH 13 0
BBX 10 11 1 0
BITMAP
00C0
03C0
0F00
3C00
F000
C000
F000
3C00
0F00
03C0
00C0
ENDCHAR

STARTCHAR equal
ENCODING 61
SWIDTH 600 0
DWIDTH 12 0
BBX 8 5 1 3
BITMAP
FF
FF
00
FF
FF
ENDCHAR

STARTCHAR greater
ENCODING 62
SWIDTH 600 0
DWIDTH 13 0
BBX 10 11 1 0
BITMAP
C000
F000
3C00
0F00
03C0
00C0
03C0
0F00
3C00
F000
C000
ENDCHAR

STARTCHAR question
ENCODING 63
SWIDTH 560 0
DWIDTH 10 0
BBX 8 14 0 0
BITMAP
3C
7E
E7
C3
03
07
0E
1C
18
18
00
18
18
18
ENDCHAR

STARTCHAR at
ENCODING 64
SWIDTH 740 0
DWIDTH 17 0
BBX 14 14 1 0
BITMAP
0FC0
3FF0
7038
63D8
C7CC
CCCC
CCCC
CCCC
CDD8
CFF0
6660
700C
3FF8
0FE0
ENDCHAR

STARTCHAR A
ENCODING 65
SWIDTH 740 0
DWIDTH 14 0
BBX 13 14 0 0
BITMAP
0700
0700
0F80
0D80
0D80
18C0
18C0
38E0
3FE0
3FE0
6030
6030
E038
C018
ENDCHAR

STARTCHAR B
ENCODING 66
SWIDTH 580 0
DWIDTH 10 0
BBX 8 14 1 0
BITMAP
FC
FE
C7
C3
C7
FE
FC
C6
C3
C3
C3
C7
FE
FC
ENDCHAR

STARTCHAR C
ENCODING 67
SWIDTH 780 0
DWIDTH 15 0
BBX 14 14 0 0
BITMAP
0FC0
3FF0
7878
6018
E01C
C000
C000
C000
C000
E01C
6018
7878
3FF0
0FC0
ENDCHAR

STARTCHAR D
ENCODING 68
SWIDTH 700 0
DWIDTH 13 0
BBX 11 14 1 0
BITMAP
FE00
FF80
C3C0
C0C0
C0E0
C060
C060
C060
C060
C0E0
C0C0
C3C0
FF80
FE00
ENDCHAR

STARTCHAR E
ENCODING 69
SWIDTH 520 0
DWIDTH 9 0
BBX 7 14 1 0
BITMAP
FE
FE
C0
C0
C0
C0
FE
FE
C0
C0
C0
C0
FE
FE
ENDCHAR

STARTCHAR F
ENCODING 70
SWIDTH 480 0
DWIDTH 9 0
BBX 7 14 1 0
BITMAP
FE
FE
C0
C0
C0
C0
FE
FE
C0
C0
C0
C0
C0
C0
ENDCHAR

STARTCHAR G
ENCODING 71
SWIDTH 840 0
DWIDTH 15 0
BBX 14 14 0 0
BITMAP
0FC0
3FF0
7878
6018
E01C
C000
C000
C3FC
C3FC
E01C
6018
7878
3FF0
0FC0
ENDCHAR

STARTCHAR H
ENCODING 72
SWIDTH 680 0
DWIDTH 13 0
BBX 10 14 1 0
BITMAP
C0C0
C0C0
C0C0
C0C0
C0C0
C0C0
FFC0
FFC0
C0C0
C0C0
C0C0
C0C0
C0C0
C0C0
ENDCHAR

STARTCHAR I
ENCODING 73
SWIDTH 280 0
DWIDTH 5 0
BBX 2 14 1 0
BITMAP
C0
C0
C0
C0
C0
C0
C0
C0
C0
C0
C0
C0
C0
C0
ENDCHAR

STARTCHAR J
ENCODING 74
SWIDTH 480 0
DWIDTH 9 0
BBX 7 14 0 0
BITMAP
06
06
06
06
06
06
06
06
06
06
C6
EE
7C
38
ENDCHAR

STARTCHAR K
ENCODING 75
SWIDTH 620 0
DWIDTH 11 0
BBX 9 14 1 0
BITMAP
C180
C380
C700
CE00
DC00
F800
F000
F000
F800
DC00
CE00
C700
C380
C180
ENDCHAR

STARTCHAR L
ENCODING 76
SWIDTH 440 0
DWIDTH 8 0
BBX 6 14 1 0
BITMAP
C0
C0
C0
C0
C0
C0
C0
C0
C0
C0
C0
C0
FC
FC
ENDCHAR

STARTCHAR M
ENCODING 77
SWIDTH 900 0
DWIDTH 17 0
BBX 14 14 1 0
BITMAP
E01C
E01C
F03C
F03C
D86C
D86C
DCCC
CCCC
CCCC
C78C
C78C
C30C
C30C
C30C
ENDCHAR

STARTCHAR N
ENCODING 78
SWIDTH 740 0
DWIDTH 14 0
BBX 11 14 1 0
BITMAP
E060
F060
F060
D860
D860
DC60
CC60
CE60
C660
C760
C360
C360
C1E0
C1E0
ENDCHAR

STARTCHAR O
ENCODING 79
SWIDTH 840 0
DWIDTH 15 0
BBX 14 14 0 0
BITMAP
0FC0
3FF0
7878
6018
E01C
C00C
C00C
C00C
C00C
E01C
6018
7878
3FF0
0FC0
ENDCHAR

STARTCHAR P
ENCODING 80
SWIDTH 560 0
DWIDTH 10 0
BBX 8 14 1 0
BITMAP
FC
FE
C7
C3
C3
C3
C7
FE
FC
C0
C0
C0
C0
C0
ENDCHAR

STARTCHAR Q
ENCODING 81
SWIDTH 840 0
DWIDTH 15 0
BBX 15 14 0 0
BITMAP
0FC0
3FF0
7878
6018
E01C
C00C
C00C
C00C
FE0C
FF9C
63F8
7878
3FFE
0FCE
ENDCHAR

STARTCHAR R
ENCODING 82
SWIDTH 580 0
DWIDTH 11 0
BBX 9 14 1 0
BITMAP
FC00
FE00
C700
C300
C300
C300
C700
FE00
F800
DC00
CE00
C700
C380
C180
ENDCHAR

STARTCHAR S
ENCODING 83
SWIDTH 520 0
DWIDTH 10 0
BBX 8 14 1 0
BITMAP
3C
7E
E7
C3
C0
F0
7C
1E
07
03
C3
E7
7E
3C
ENDCHAR

STARTCHAR T
ENCODING 84
SWIDTH 420 0
DWIDTH 9 0
BBX 8 14 0 0
BITMAP
FF
FF
18
18
18
18
18
18
18
18
18
18
18
18
ENDCHAR

STARTCHAR U
ENCODING 85
SWIDTH 640 0
DWIDTH 12 0
BBX 10 14 1 0
BITMAP
C0C0
C0C0
C0C0
C0C0
C0C0
C0C0
C0C0
C0C0
C0C0
C0C0
C0C0
E1C0
7F80
3F00
ENDCHAR

STARTCHAR V
ENCODING 86
SWIDTH 700 0
DWIDTH 12 0
BBX 11 14 0 0
BITMAP
C060
C060
E060
60C0
60C0
71C0
3180
3180
3B80
1B00
1B00
1F00
0E00
0E00
ENDCHAR

STARTCHAR W
ENCODING 87
SWIDTH 900 0
DWIDTH 17 0
BBX 16 14 0 0
BITMAP
C183
C183
C183
E3C7
63C6
63C6
6666
766E
366C
342C
3C3C
3C3C
1818
1818
ENDCHAR

STARTCHAR X
ENCODING 88
SWIDTH 680 0
DWIDTH 12 0
BBX 11 14 0 0
BITMAP
C060
E0E0
70C0
3180
3B00
1F00
0E00
0E00
1F00
1B80
3180
71C0
E0E0
C060
ENDCHAR

STARTCHAR Y
ENCODING 89
SWIDTH 620 0
DWIDTH 11 0
BBX 10 14 0 0
BITMAP
C0C0
E1C0
6180
7380
3300
3300
1E00
1E00
0C00
0C00
0C00
0C00
0C00
0C00
ENDCHAR

STARTCHAR Z
ENCODING 90
SWIDTH 500 0
DWIDTH 9 0
BBX 8 14 0 0
BITMAP
FF
FF
03
06
0E
0C
1C
18
30
70
60
C0
FF
FF
ENDCHAR

STARTCHAR bracketleft
ENCODING 91
SWIDTH 320 0
DWIDTH 6 0
BBX 4 16 1 -2
BITMAP
30
70
E0
C0
C0
C0
C0
C0
C0
C0
C0
C0
C0
E0
70
30
ENDCHAR

STARTCHAR backslash
ENCODING 92
SWIDTH 640 0
DWIDTH 12 0
BBX 8 14 1 0
BITMAP
C0
C0
60
60
30
30
18
18
0C
0C
06
06
03
03
ENDCHAR

STARTCHAR bracketright
ENCODING 93
SWIDTH 320 0
DWIDTH 6 0
BBX 4 16 1 -2
BITMAP
C0
E0
70
30
30
30
30
30
30
30
30
30
30
70
E0
C0
ENDCHAR

STARTCHAR asciicircum
ENCODING 94
SWIDTH 600 0
DWIDTH 12 0
BBX 9 8 1 6
BITMAP
1C00
1C00
3600
3600
6300
6300
C180
C180
ENDCHAR

STARTCHAR underscore
ENCODING 95
SWIDTH 500 0
DWIDTH 9 0
BBX 9 2 0 -3
BITMAP
FF80
FF80
ENDCHAR

STARTCHAR quoteleft
ENCODING 96
SWIDTH 280 0
DWIDTH 5 0
BBX 2 5 1 9
BITMAP
40
80
C0
C0
C0
ENDCHAR

STARTCHAR a
ENCODING 97
SWIDTH 660 0
DWIDTH 13 0
BBX 11 11 0 0
BITMAP
1E60
7FE0
71E0
E0E0
C060
C060
C060
E0E0
71E0
7FE0
1E60
ENDCHAR

STARTCHAR b
ENCODING 98
SWIDTH 660 0
DWIDTH 13 0
BBX 11 14 1 0
BITMAP
C000
C000
C000
CF00
FFC0
F1C0
E0E0
C060
C060
C060
E0E0
F1C0
FFC0
CF00
ENDCHAR

STARTCHAR c
ENCODING 99
SWIDTH 640 0
DWIDTH 12 0
BBX 11 11 0 0
BITMAP
1F00
7FC0
71C0
E0E0
C000
C000
C000
E0E0
71C0
7FC0
1F00
ENDCHAR

STARTCHAR d
ENCODING 100
SWIDTH 660 0
DWIDTH 12 0
BBX 11 14 0 0
BITMAP
0060
0060
0060
1E60
7FE0
71E0
E0E0
C060
C060
C060
E0E0
71E0
7FE0
1E60
ENDCHAR

STARTCHAR e
ENCODING 101
SWIDTH 640 0
DWIDTH 12 0
BBX 11 11 0 0
BITMAP
1F00
7FC0
71C0
C060
FFE0
FFE0
C000
E000
71C0
7FC0
1F00
ENDCHAR

STARTCHAR f
ENCODING 102
SWIDTH 280 0
DWIDTH 5 0
BBX 5 14 0 0
BITMAP
38
78
60
F0
F0
60
60
60
60
60
60
60
60
60
ENDCHAR

STARTCHAR g
ENCODING 103
SWIDTH 660 0
DWIDTH 13 0
BBX 11 14 0 -3
BITMAP
1E60
7FE0
71E0
E0E0
C060
C060
C060
E0E0
71E0
7FE0
1E60
E0E0
7FC0
3F80
ENDCHAR

STARTCHAR h
ENCODING 104
SWIDTH 600 0
DWIDTH 10 0
BBX 9 14 0 0
BITMAP
C000
C000
C000
DE00
FF00
E380
C180
C180
C180
C180
C180
C180
C180
C180
ENDCHAR

STARTCHAR i
ENCODING 105
SWIDTH 240 0
DWIDTH 5 0
BBX 2 14 1 0
BITMAP
C0
C0
00
C0
C0
C0
C0
C0
C0
C0
C0
C0
C0
C0
ENDCHAR

STARTCHAR j
ENCODING 106
SWIDTH 260 0
DWIDTH 5 0
BBX 4 17 -1 -3
BITMAP
30
30
00
30
30
30
30
30
30
30
30
30
30
30
30
F0
E0
ENDCHAR

STARTCHAR k
ENCODING 107
SWIDTH 580 0
DWIDTH 10 0
BBX 8 14 1 0
BITMAP
C0
C0
C0
C3
C7
CE
DC
F8
F0
F8
DC
CE
C7
C3
ENDCHAR

STARTCHAR l
ENCODING 108
SWIDTH 240 0
DWIDTH 5 0
BBX 2 14 1 0
BITMAP
C0
C0
C0
C0
C0
C0
C0
C0
C0
C0
C0
C0
C0
C0
ENDCHAR

STARTCHAR m
ENCODING 109
SWIDTH 940 0
DWIDTH 15 0
BBX 14 11 0 0
BITMAP
DCF0
FFF8
E79C
C30C
C30C
C30C
C30C
C30C
C30C
C30C
C30C
ENDCHAR

STARTCHAR n
ENCODING 110
SWIDTH 600 0
DWIDTH 10 0
BBX 9 11 0 0
BITMAP
DE00
FF00
E380
C180
C180
C180
C180
C180
C180
C180
C180
ENDCHAR

STARTCHAR o
ENCODING 111
SWIDTH 640 0
DWIDTH 12 0
BBX 11 11 0 0
BITMAP
1F00
7FC0
71C0
E0E0
C060
C060
C060
E0E0
71C0
7FC0
1F00
ENDCHAR

STARTCHAR p
ENCODING 112
SWIDTH 660 0
DWIDTH 13 0
BBX 11 14 1 -3
BITMAP
CF00
FFC0
F1C0
E0E0
C060
C060
C060
E0E0
F1C0
FFC0
CF00
C000
C000
C000
ENDCHAR

STARTCHAR q
ENCODING 113
SWIDTH 660 0
DWIDTH 13 0
BBX 11 14 0 -3
BITMAP
1E60
7FE0
71E0
E0E0
C060
C060
C060
E0E0
71E0
7FE0
1E60
0060
0060
0060
ENDCHAR

STARTCHAR r
ENCODING 114
SWIDTH 320 0
DWIDTH 6 0
BBX 5 11 0 0
BITMAP
D8
F8
E0
C0
C0
C0
C0
C0
C0
C0
C0
ENDCHAR

STARTCHAR s
ENCODING 115
SWIDTH 440 0
DWIDTH 9 0
BBX 8 11 0 0
BITMAP
3C
7E
E7
C3
F0
7E
0F
C3
E3
7E
3C
ENDCHAR

STARTCHAR t
ENCODING 116
SWIDTH 300 0
DWIDTH 7 0
BBX 6 14 0 0
BITMAP
30
30
30
FC
FC
30
30
30
30
30
30
30
30
30
ENDCHAR

STARTCHAR u
ENCODING 117
SWIDTH 600 0
DWIDTH 10 0
BBX 9 11 0 0
BITMAP
C180
C180
C180
C180
C180
C180
C180
C180
E380
7F80
3D80
ENDCHAR

STARTCHAR v
ENCODING 118
SWIDTH 560 0
DWIDTH 11 0
BBX 10 11 0 0
BITMAP
C0C0
E1C0
6180
6180
7380
3300
3300
1E00
1E00
0C00
0C00
ENDCHAR

STARTCHAR w
ENCODING 119
SWIDTH 800 0
DWIDTH 15 0
BBX 14 11 0 0
BITMAP
C30C
E31C
6318
6318
77B8
37B0
34B0
3CF0
1CE0
1860
1860
ENDCHAR

STARTCHAR x
ENCODING 120
SWIDTH 560 0
DWIDTH 10 0
BBX 9 11 0 0
BITMAP
E380
E380
7700
3600
3E00
1C00
3E00
3600
7700
6300
E380
ENDCHAR

STARTCHAR y
ENCODING 121
SWIDTH 580 0
DWIDTH 11 0
BBX 10 14 0 -3
BITMAP
E1C0
E1C0
6180
7380
3300
3300
3700
1E00
1E00
0C00
1C00
1800
3800
3800
ENDCHAR

STARTCHAR z
ENCODING 122
SWIDTH 460 0
DWIDTH 8 0
BBX 7 11 0 0
BITMAP
FE
FE
0E
1C
18
38
30
60
E0
FE
FE
ENDCHAR

STARTCHAR braceleft
ENCODING 123
SWIDTH 340 0
DWIDTH 7 0
BBX 5 16 1 -2
BITMAP
38
70
60
60
60
60
40
80
40
60
60
60
60
60
70
38
ENDCHAR

STARTCHAR bar
ENCODING 124
SWIDTH 600 0
DWIDTH 11 0
BBX 2 14 4 0
BITMAP
C0
C0
C0
C0
C0
C0
C0
C0
C0
C0
C0
C0
C0
C0
ENDCHAR

STARTCHAR braceright
ENCODING 125
SWIDTH 340 0
DWIDTH 7 0
BBX 5 16 1 -2
BITMAP
E0
70
30
30
30
30
10
08
10
30
30
30
30
30
70
E0
ENDCHAR

STARTCHAR asciitilde
ENCODING 126
SWIDTH 600 0
DWIDTH 13 0
BBX 10 3 1 5
BITMAP
38C0
7F80
C700
ENDCHAR

STARTCHAR space
ENCODING 160
SWIDTH 280 0
DWIDTH 5 0
BBX 1 1 0 0
BITMAP
00
ENDCHAR

STARTCHAR exclamdown
ENCODING 161
SWIDTH 280 0
DWIDTH 5 0
BBX 2 14 1 -3
BITMAP
C0
C0
C0
00
C0
C0
C0
C0
C0
C0
C0
C0
C0
C0
ENDCHAR

STARTCHAR cent
ENCODING 162
SWIDTH 560 0
DWIDTH 10 0
BBX 8 12 1 1
BITMAP
18
18
3C
7E
E7
C0
C0
E7
7E
3C
18
18
ENDCHAR

STARTCHAR sterling
ENCODING 163
SWIDTH 560 0
DWIDTH 11 0
BBX 9 14 1 0
BITMAP
3C00
7E00
E700
C300
E000
6000
FC00
FC00
3000
3180
3180
7380
FF00
FE00
ENDCHAR

STARTCHAR currency
ENCODING 164
SWIDTH 600 0
DWIDTH 11 0
BBX 9 9 0 2
BITMAP
C180
DD80
7F00
6300
6300
6300
7F00
DD80
C180
ENDCHAR

STARTCHAR yen
ENCODING 165
SWIDTH 560 0
DWIDTH 12 0
BBX 10 14 1 0
BITMAP
C0C0
E1C0
6180
7380
3300
FFC0
FFC0
1E00
0C00
FFC0
FFC0
0C00
0C00
0C00
ENDCHAR

STARTCHAR brokenbar
ENCODING 166
SWIDTH 600 0
DWIDTH 11 0
BBX 2 14 4 0
BITMAP
C0
C0
C0
C0
C0
C0
00
00
C0
C0
C0
C0
C0
C0
ENDCHAR

STARTCHAR section
ENCODING 167
SWIDTH 560 0
DWIDTH 10 0
BBX 8 16 1 -2
BITMAP
3E
7F
63
70
38
7C
CE
C7
E3
77
3E
1C
0E
C6
FE
7C
ENDCHAR

STARTCHAR dieresis
ENCODING 168
SWIDTH 500 0
DWIDTH 9 0
BBX 5 2 2 12
BITMAP
D8
D8
ENDCHAR

STARTCHAR copyright
ENCODING 169
SWIDTH 740 0
DWIDTH 14 0
BBX 13 13 0 1
BITMAP
0F80
38E0
6030
4710
CD98
8808
8808
8808
CD98
4710
6030
38E0
0F80
ENDCHAR

STARTCHAR ordfeminine
ENCODING 170
SWIDTH 360 0
DWIDTH 7 0
BBX 5 8 1 6
BITMAP
68
D8
88
88
D8
68
00
F8
ENDCHAR

STARTCHAR guillemotleft
ENCODING 171
SWIDTH 460 0
DWIDTH 8 0
BBX 7 6 0 3
BITMAP
22
66
CC
CC
66
22
ENDCHAR

STARTCHAR logicalnot
ENCODING 172
SWIDTH 600 0
DWIDTH 12 0
BBX 9 6 1 2
BITMAP
FF80
FF80
0180
0180
0180
0180
ENDCHAR

STARTCHAR hyphen
ENCODING 173
SWIDTH 420 0
DWIDTH 8 0
BBX 7 2 0 5
BITMAP
FE
FE
ENDCHAR

STARTCHAR registered
ENCODING 174
SWIDTH 740 0
DWIDTH 14 0
BBX 13 13 0 1
BITMAP
0F80
38E0
6030
4F10
C898
8888
8F08
8908
C898
4890
6030
38E0
0F80
ENDCHAR

STARTCHAR macron
ENCODING 175
SWIDTH 420 0
DWIDTH 8 0
BBX 5 2 1 12
BITMAP
F8
F8
ENDCHAR

STARTCHAR degree
ENCODING 176
SWIDTH 400 0
DWIDTH 7 0
BBX 6 5 0 9
BITMAP
78
CC
CC
CC
78
ENDCHAR

STARTCHAR plusminus
ENCODING 177
SWIDTH 600 0
DWIDTH 13 0
BBX 10 11 1 0
BITMAP
0C00
0C00
0C00
FFC0
FFC0
0C00
0C00
0C00
0000
FFC0
FFC0
ENDCHAR

STARTCHAR twosuperior
ENCODING 178
SWIDTH 336 0
DWIDTH 6 0
BBX 5 8 0 6
BITMAP
70
F8
D8
18
30
60
F8
F8
ENDCHAR

STARTCHAR threesuperior
ENCODING 179
SWIDTH 336 0
DWIDTH 6 0
BBX 5 8 0 6
BITMAP
70
F8
18
70
38
18
F8
70
ENDCHAR

STARTCHAR acute
ENCODING 180
SWIDTH 420 0
DWIDTH 8 0
BBX 4 3 2 12
BITMAP
30
60
C0
ENDCHAR

STARTCHAR mu
ENCODING 181
SWIDTH 576 0
DWIDTH 10 0
BBX 9 14 0 -3
BITMAP
C180
C180
C180
C180
C180
C180
C180
C180
E380
FF80
DD80
C000
C000
C000
ENDCHAR

STARTCHAR paragraph
ENCODING 182
SWIDTH 600 0
DWIDTH 11 0
BBX 9 16 1 -2
BITMAP
3F80
7F80
FD80
FD80
FD80
FD80
7D80
3D80
0D80
0D80
0D80
0D80
0D80
0D80
0D80
0D80
ENDCHAR

STARTCHAR periodcentered
ENCODING 183
SWIDTH 280 0
DWIDTH 5 0
BBX 2 2 1 5
BITMAP
C0
C0
ENDCHAR

STARTCHAR cedilla
ENCODING 184
SWIDTH 340 0
DWIDTH 6 0
BBX 4 4 1 -4
BITMAP
60
30
90
60
ENDCHAR

STARTCHAR onesuperior
ENCODING 185
SWIDTH 336 0
DWIDTH 6 0
BBX 3 8 1 6
BITMAP
E0
E0
60
60
60
60
60
60
ENDCHAR

STARTCHAR ordmasculine
ENCODING 186
SWIDTH 360 0
DWIDTH 7 0
BBX 5 8 1 6
BITMAP
70
D8
88
88
D8
70
00
F8
ENDCHAR

STARTCHAR guillemotright
ENCODING 187
SWIDTH 460 0
DWIDTH 8 0
BBX 7 6 0 3
BITMAP
88
CC
66
66
CC
88
ENDCHAR

STARTCHAR onequarter
ENCODING 188
SWIDTH 840 0
DWIDTH 15 0
BBX 13 14 1 0
BITMAP
E0C0
E0C0
6180
6180
6300
6300
6630
6670
0C70
0CB0
19B8
19F8
3030
3030
ENDCHAR

STARTCHAR onehalf
ENCODING 189
SWIDTH 840 0
DWIDTH 15 0
BBX 13 14 0 0
BITMAP
E0C0
E0C0
6180
6180
6300
6300
6670
66F8
0CD8
0C18
1830
1860
30F8
30F8
ENDCHAR

STARTCHAR threequarters
ENCODING 190
SWIDTH 840 0
DWIDTH 15 0
BBX 14 14 0 0
BITMAP
7060
F860
18C0
70C0
3980
1980
FB18
7338
0638
0658
0CDC
0CFC
1818
1818
ENDCHAR

STARTCHAR questiondown
ENCODING 191
SWIDTH 560 0
DWIDTH 10 0
BBX 8 14 1 -3
BITMAP
18
18
18
00
18
18
38
70
E0
C0
C3
E7
7E
3C
ENDCHAR

STARTCHAR Agrave
ENCODING 192
SWIDTH 740 0
DWIDTH 14 0
BBX 13 18 0 0
BITMAP
0C00
0600
0300
0000
0700
0700
0F80
0D80
0D80
18C0
18C0
38E0
3FE0
3FE0
6030
6030
E038
C018
ENDCHAR

STARTCHAR Aacute
ENCODING 193
SWIDTH 740 0
DWIDTH 14 0
BBX 13 18 0 0
BITMAP
00C0
0180
0300
0000
0700
0700
0F80
0D80
0D80
18C0
18C0
38E0
3FE0
3FE0
6030
6030
E038
C018
ENDCHAR

STARTCHAR Acircumflex
ENCODING 194
SWIDTH 740 0
DWIDTH 14 0
BBX 13 18 0 0
BITMAP
0300
0780
0CC0
0000
0700
0700
0F80
0D80
0D80
18C0
18C0
38E0
3FE0
3FE0
6030
6030
E038
C018
ENDCHAR

STARTCHAR Atilde
ENCODING 195
SWIDTH 740 0
DWIDTH 14 0
BBX 13 17 0 0
BITMAP
0EC0
1B80
0000
0700
0700
0F80
0D80
0D80
18C0
18C0
38E0
3FE0
3FE0
6030
6030
E038
C018
ENDCHAR

STARTCHAR Adieresis
ENCODING 196
SWIDTH 740 0
DWIDTH 14 0
BBX 13 17 0 0
BITMAP
0D80
0D80
0000
0700
0700
0F80
0D80
0D80
18C0
18C0
38E0
3FE0
3FE0
6030
6030
E038
C018
ENDCHAR

STARTCHAR Aring
ENCODING 197
SWIDTH 740 0
DWIDTH 14 0
BBX 13 19 0 0
BITMAP
0300
0480
0480
0300
0000
0700
0700
0F80
0D80
0D80
18C0
18C0
38E0
3FE0
3FE0
6030
6030
E038
C018
ENDCHAR

STARTCHAR AE
ENCODING 198
SWIDTH 900 0
DWIDTH 16 0
BBX 15 14 0 0
BITMAP
00FE
01FE
03C0
03C0
06C0
0EC0
0CFE
1CFE
18C0
3FC0
7FC0
60C0
E0FE
C0FE
ENDCHAR

STARTCHAR Ccedilla
ENCODING 199
SWIDTH 780 0
DWIDTH 15 0
BBX 14 18 0 -4
BITMAP
0FC0
3FF0
7878
6018
E01C
C000
C000
C000
C000
E01C
6018
7878
3FF0
0FC0
0300
0180
0480
0300
ENDCHAR

STARTCHAR Egrave
ENCODING 200
SWIDTH 520 0
DWIDTH 9 0
BBX 7 18 1 0
BITMAP
60
30
18
00
FE
FE
C0
C0
C0
C0
FE
FE
C0
C0
C0
C0
FE
FE
ENDCHAR

STARTCHAR Eacute
ENCODING 201
SWIDTH 520 0
DWIDTH 9 0
BBX 7 18 1 0
BITMAP
06
0C
18
00
FE
FE
C0
C0
C0
C0
FE
FE
C0
C0
C0
C0
FE
FE
ENDCHAR

STARTCHAR Ecircumflex
ENCODING 202
SWIDTH 520 0
DWIDTH 9 0
BBX 7 18 1 0
BITMAP
18
3C
66
00
FE
FE
C0
C0
C0
C0
FE
FE
C0
C0
C0
C0
FE
FE
ENDCHAR

STARTCHAR Edieresis
ENCODING 203
SWIDTH 520 0
DWIDTH 9 0
BBX 7 17 1 0
BITMAP
6C
6C
00
FE
FE
C0
C0
C0
C0
FE
FE
C0
C0
C0
C0
FE
FE
ENDCHAR

STARTCHAR Igrave
ENCODING 204
SWIDTH 280 0
DWIDTH 5 0
BBX 4 18 0 0
BITMAP
C0
60
30
00
60
60
60
60
60
60
60
60
60
60
60
60
60
60
ENDCHAR

STARTCHAR Iacute
ENCODING 205
SWIDTH 280 0
DWIDTH 5 0
BBX 4 18 1 0
BITMAP
30
60
C0
00
C0
C0
C0
C0
C0
C0
C0
C0
C0
C0
C0
C0
C0
C0
ENDCHAR

STARTCHAR Icircumflex
ENCODING 206
SWIDTH 280 0
DWIDTH 5 0
BBX 6 18 -1 0
BITMAP
30
78
CC
00
30
30
30
30
30
30
30
30
30
30
30
30
30
30
ENDCHAR

STARTCHAR Idieresis
ENCODING 207
SWIDTH 280 0
DWIDTH 5 0
BBX 5 17 0 0
BITMAP
D8
D8
00
60
60
60
60
60
60
60
60
60
60
60
60
60
60
ENDCHAR

STARTCHAR Eth
ENCODING 208
SWIDTH 742 0
DWIDTH 13 0
BBX 13 14 -1 0
BITMAP
3F80
3FE0
30F0
3030
3038
3018
FE18
FE18
3018
3038
3030
30F0
3FE0
3F80
ENDCHAR

STARTCHAR Ntilde
ENCODING 209
SWIDTH 740 0
DWIDTH 14 0
BBX 11 17 1 0
BITMAP
1D80
3700
0000
E060
F060
F060
D860
D860
DC60
CC60
CE60
C660
C760
C360
C360
C1E0
C1E0
ENDCHAR

STARTCHAR Ograve
ENCODING 210
SWIDTH 840 0
DWIDTH 15 0
BBX 14 18 0 0
BITMAP
0600
0300
0180
0000
0FC0
3FF0
7878
6018
E01C
C00C
C00C
C00C
C00C
E01C
6018
7878
3FF0
0FC0
ENDCHAR

STARTCHAR Oacute
ENCODING 211
SWIDTH 840 0
DWIDTH 15 0
BBX 14 18 0 0
BITMAP
00C0
0180
0300
0000
0FC0
3FF0
7878
6018
E01C
C00C
C00C
C00C
C00C
E01C
6018
7878
3FF0
0FC0
ENDCHAR

STARTCHAR Ocircumflex
ENCODING 212
SWIDTH 840 0
DWIDTH 15 0
BBX 14 18 0 0
BITMAP
0300
0780
0CC0
0000
0FC0
3FF0
7878
6018
E01C
C00C
C00C
C00C
C00C
E01C
6018
7878
3FF0
0FC0
ENDCHAR

STARTCHAR Otilde
ENCODING 213
SWIDTH 840 0
DWIDTH 15 0
BBX 14 17 0 0
BITMAP
0760
0DC0
0000
0FC0
3FF0
7878
6018
E01C
C00C
C00C
C00C
C00C
E01C
6018
7878
3FF0
0FC0
ENDCHAR

STARTCHAR Odieresis
ENCODING 214
SWIDTH 840 0
DWIDTH 15 0
BBX 14 17 0 0
BITMAP
06C0
06C0
0000
0FC0
3FF0
7878
6018
E01C
C00C
C00C
C00C
C00C
E01C
6018
7878
3FF0
0FC0
ENDCHAR

STARTCHAR multiply
ENCODING 215
SWIDTH 600 0
DWIDTH 13 0
BBX 10 10 1 1
BITMAP
4080
E1C0
7380
3F00
1E00
1E00
3F00
7380
E1C0
4080
ENDCHAR

STARTCHAR Oslash
ENCODING 216
SWIDTH 840 0
DWIDTH 15 0
BBX 14 16 0 -1
BITMAP
0018
0FF8
3FF0
7878
60D8
E1DC
C18C
C30C
C70C
C60C
EC1C
6C18
7878
3FF0
7FC0
6000
ENDCHAR

STARTCHAR Ugrave
ENCODING 217
SWIDTH 640 0
DWIDTH 12 0
BBX 10 18 1 0
BITMAP
1800
0C00
0600
0000
C0C0
C0C0
C0C0
C0C0
C0C0
C0C0
C0C0
C0C0
C0C0
C0C0
C0C0
E1C0
7F80
3F00
ENDCHAR

STARTCHAR Uacute
ENCODING 218
SWIDTH 640 0
DWIDTH 12 0
BBX 10 18 1 0
BITMAP
0300
0600
0C00
0000
C0C0
C0C0
C0C0
C0C0
C0C0
C0C0
C0C0
C0C0
C0C0
C0C0
C0C0
E1C0
7F80
3F00
ENDCHAR

STARTCHAR Ucircumflex
ENCODING 219
SWIDTH 640 0
DWIDTH 12 0
BBX 10 18 1 0
BITMAP
0C00
1E00
3300
0000
C0C0
C0C0
C0C0
C0C0
C0C0
C0C0
C0C0
C0C0
C0C0
C0C0
C0C0
E1C0
7F80
3F00
ENDCHAR

STARTCHAR Udieresis
ENCODING 220
SWIDTH 640 0
DWIDTH 12 0
BBX 10 17 1 0
BITMAP
3300
3300
0000
C0C0
C0C0
C0C0
C0C0
C0C0
C0C0
C0C0
C0C0
C0C0
C0C0
C0C0
E1C0
7F80
3F00
ENDCHAR

STARTCHAR Yacute
ENCODING 221
SWIDTH 620 0
DWIDTH 11 0
BBX 10 18 0 0
BITMAP
0300
0600
0C00
0000
C0C0
E1C0
6180
7380
3300
3300
1E00
1E00
0C00
0C00
0C00
0C00
0C00
0C00
ENDCHAR

STARTCHAR Thorn
ENCODING 222
SWIDTH 560 0
DWIDTH 10 0
BBX 8 14 1 0
BITMAP
C0
C0
FC
FE
C7
C3
C3
C3
C7
FE
FC
C0
C0
C0
ENDCHAR

STARTCHAR germandbls
ENCODING 223
SWIDTH 600 0
DWIDTH 11 0
BBX 10 14 0 0
BITMAP
3C00
7E00
E700
C300
C300
C700
CE00
CF80
C1C0
C0C0
F0C0
F9C0
DF80
CF00
ENDCHAR

STARTCHAR agrave
ENCODING 224
SWIDTH 660 0
DWIDTH 13 0
BBX 11 15 0 0
BITMAP
1800
0C00
0600
0000
1E60
7FE0
71E0
E0E0
C060
C060
C060
E0E0
71E0
7FE0
1E60
ENDCHAR

STARTCHAR aacute
ENCODING 225
SWIDTH 660 0
DWIDTH 13 0
BBX 11 15 0 0
BITMAP
0180
0300
0600
0000
1E60
7FE0
71E0
E0E0
C060
C060
C060
E0E0
71E0
7FE0
1E60
ENDCHAR

STARTCHAR acircumflex
ENCODING 226
SWIDTH 660 0
DWIDTH 13 0
BBX 11 15 0 0
BITMAP
0600
0F00
1980
0000
1E60
7FE0
71E0
E0E0
C060
C060
C060
E0E0
71E0
7FE0
1E60
ENDCHAR

STARTCHAR atilde
ENCODING 227
SWIDTH 660 0
DWIDTH 13 0
BBX 11 14 0 0
BITMAP
0EC0
1B80
0000
1E60
7FE0
71E0
E0E0
C060
C060
C060
E0E0
71E0
7FE0
1E60
ENDCHAR

STARTCHAR adieresis
ENCODING 228
SWIDTH 660 0
DWIDTH 13 0
BBX 11 14 0 0
BITMAP
1980
1980
0000
1E60
7FE0
71E0
E0E0
C060
C060
C060
E0E0
71E0
7FE0
1E60
ENDCHAR

STARTCHAR aring
ENCODING 229
SWIDTH 660 0
DWIDTH 13 0
BBX 11 15 0 0
BITMAP
0700
0D80
0700
0000
1E60
7FE0
71E0
E0E0
C060
C060
C060
E0E0
71E0
7FE0
1E60
ENDCHAR

STARTCHAR ae
ENCODING 230
SWIDTH 1080 0
DWIDTH 21 0
BBX 20 11 0 0
BITMAP
1E6F80
7FFFE0
71F8E0
E0E030
C07FF0
C07FF0
C06000
E0F000
71F8E0
7FFFE0
1E6F80
ENDCHAR

STARTCHAR ccedilla
ENCODING 231
SWIDTH 640 0
DWIDTH 12 0
BBX 11 15 0 -4
BITMAP
1F00
7FC0
71C0
E0E0
C000
C000
C000
E0E0
71C0
7FC0
1F00
0C00
0600
1200
0C00
ENDCHAR

STARTCHAR egrave
ENCODING 232
SWIDTH 640 0
DWIDTH 12 0
BBX 11 15 0 0
BITMAP
1800
0C00
0600
0000
1F00
7FC0
71C0
C060
FFE0
FFE0
C000
E000
71C0
7FC0
1F00
ENDCHAR

STARTCHAR eacute
ENCODING 233
SWIDTH 640 0
DWIDTH 12 0
BBX 11 15 0 0
BITMAP
0300
0600
0C00
0000
1F00
7FC0
71C0
C060
FFE0
FFE0
C000
E000
71C0
7FC0
1F00
ENDCHAR

STARTCHAR ecircumflex
ENCODING 234
SWIDTH 640 0
DWIDTH 12 0
BBX 11 15 0 0
BITMAP
0600
0F00
1980
0000
1F00
7FC0
71C0
C060
FFE0
FFE0
C000
E000
71C0
7FC0
1F00
ENDCHAR

STARTCHAR edieresis
ENCODING 235
SWIDTH 640 0
DWIDTH 12 0
BBX 11 14 0 0
BITMAP
1980
1980
0000
1F00
7FC0
71C0
C060
FFE0
FFE0
C000
E000
71C0
7FC0
1F00
ENDCHAR

STARTCHAR igrave
ENCODING 236
SWIDTH 240 0
DWIDTH 5 0
BBX 4 15 -1 0
BITMAP
C0
60
30
00
30
30
30
30
30
30
30
30
30
30
30
ENDCHAR

STARTCHAR iacute
ENCODING 237
SWIDTH 240 0
DWIDTH 5 0
BBX 4 15 1 0
BITMAP
30
60
C0
00
C0
C0
C0
C0
C0
C0
C0
C0
C0
C0
C0
ENDCHAR

STARTCHAR icircumflex
ENCODING 238
SWIDTH 240 0
DWIDTH 5 0
BBX 6 15 -1 0
BITMAP
30
78
CC
00
30
30
30
30
30
30
30
30
30
30
30
ENDCHAR

STARTCHAR idieresis
ENCODING 239
SWIDTH 240 0
DWIDTH 5 0
BBX 5 14 0 0
BITMAP
D8
D8
00
60
60
60
60
60
60
60
60
60
60
60
ENDCHAR

STARTCHAR eth
ENCODING 240
SWIDTH 640 0
DWIDTH 12 0
BBX 11 15 0 0
BITMAP
7600
1C00
3600
4300
1F80
7FC0
71C0
E0E0
C060
C060
C060
E0E0
71C0
7FC0
1F00
ENDCHAR

STARTCHAR ntilde
ENCODING 241
SWIDTH 600 0
DWIDTH 10 0
BBX 9 14 0 0
BITMAP
3B00
6E00
0000
DE00
FF00
E380
C180
C180
C180
C180
C180
C180
C180
C180
ENDCHAR

STARTCHAR ograve
ENCODING 242
SWIDTH 640 0
DWIDTH 12 0
BBX 11 15 0 0
BITMAP
1800
0C00
0600
0000
1F00
7FC0
71C0
E0E0
C060
C060
C060
E0E0
71C0
7FC0
1F00
ENDCHAR

STARTCHAR oacute
ENCODING 243
SWIDTH 640 0
DWIDTH 12 0
BBX 11 15 0 0
BITMAP
0180
0300
0600
0000
1F00
7FC0
71C0
E0E0
C060
C060
C060
E0E0
71C0
7FC0
1F00
ENDCHAR

STARTCHAR ocircumflex
ENCODING 244
SWIDTH 640 0
DWIDTH 12 0
BBX 11 14 0 0
BITMAP
0600
0F00
1980
0000
1F00
7FC0
71C0
E0E0
C060
C060
E0E0
71C0
7FC0
1F00
ENDCHAR

STARTCHAR otilde
ENCODING 245
SWIDTH 640 0
DWIDTH 12 0
BBX 11 14 0 0
BITMAP
1D80
3700
0000
1F00
7FC0
71C0
E0E0
C060
C060
C060
E0E0
71C0
7FC0
1F00
ENDCHAR

STARTCHAR odieresis
ENCODING 246
SWIDTH 640 0
DWIDTH 12 0
BBX 11 14 0 0
BITMAP
1B00
1B00
0000
1F00
7FC0
71C0
E0E0
C060
C060
C060
E0E0
71C0
7FC0
1F00
ENDCHAR

STARTCHAR divide
ENCODING 247
SWIDTH 600 0
DWIDTH 13 0
BBX 10 8 1 2
BITMAP
0C00
0C00
0000
FFC0
FFC0
0000
0C00
0C00
ENDCHAR

STARTCHAR oslash
ENCODING 248
SWIDTH 660 0
DWIDTH 12 0
BBX 11 13 0 -1
BITMAP
0040
1FE0
7FC0
71E0
E360
C660
CE60
CC60
D8E0
F1C0
7FC0
FF00
4000
ENDCHAR

STARTCHAR ugrave
ENCODING 249
SWIDTH 600 0
DWIDTH 10 0
BBX 9 15 0 0
BITMAP
3000
1800
0C00
0000
C180
C180
C180
C180
C180
C180
C180
C180
E380
7F80
3D80
ENDCHAR

STARTCHAR uacute
ENCODING 250
SWIDTH 600 0
DWIDTH 10 0
BBX 9 15 0 0
BITMAP
0300
0600
0C00
0000
C180
C180
C180
C180
C180
C180
C180
C180
E380
7F80
3D80
ENDCHAR

STARTCHAR ucircumflex
ENCODING 251
SWIDTH 600 0
DWIDTH 10 0
BBX 9 15 0 0
BITMAP
0C00
1E00
3300
0000
C180
C180
C180
C180
C180
C180
C180
C180
E380
7F80
3D80
ENDCHAR

STARTCHAR udieresis
ENCODING 252
SWIDTH 600 0
DWIDTH 10 0
BBX 9 14 0 0
BITMAP
3600
3600
0000
C180
C180
C180
C180
C180
C180
C180
C180
E380
7F80
3D80
ENDCHAR

STARTCHAR yacute
ENCODING 253
SWIDTH 580 0
DWIDTH 11 0
BBX 10 18 0 -3
BITMAP
0300
0600
0C00
0000
E1C0
E1C0
6180
7380
3300
3700
3E00
1E00
1E00
0C00
1C00
1800
3800
3800
ENDCHAR

STARTCHAR thorn
ENCODING 254
SWIDTH 660 0
DWIDTH 13 0
BBX 11 17 1 -3
BITMAP
C000
C000
C000
CF00
FFC0
F1C0
E0E0
C060
C060
C060
E0E0
F1C0
FFC0
CF00
C000
C000
C000
ENDCHAR

STARTCHAR ydieresis
ENCODING 255
SWIDTH 580 0
DWIDTH 11 0
BBX 10 17 0 -3
BITMAP
3600
3600
0000
E1C0
E1C0
6180
7380
3300
3700
3E00
1E00
1E00
0C00
1C00
1800
3800
3800
ENDCHAR
ENDFONT
